<svg xmlns="http://www.w3.org/2000/svg" width="55.079" height="46.201" viewBox="0 0 55.079 46.201"><g transform="translate(0 0.003)"><path d="M10.632,22.209v-.933c-2.574-.785-3.7-2.577-3.527-5.286a3.15,3.15,0,0,1-2.916-.928,2.616,2.616,0,0,1-.636-1.783,2.651,2.651,0,0,1,1.12-2.128,3.66,3.66,0,0,1,2.4-.5V8.828a4.619,4.619,0,0,1-2.7-1.8,4.33,4.33,0,0,1-.829-2.54V1.051C3.56.33,3.886.009,4.611.007c3.016,0,6.032-.024,9.045.006A7.991,7.991,0,0,1,21.21,6.686a16.473,16.473,0,0,1,.111,1.767c.018.717,0,1.434,0,2.22a3.159,3.159,0,0,1,2.915.923,2.586,2.586,0,0,1,.636,1.785,2.658,2.658,0,0,1-1.12,2.128,3.748,3.748,0,0,1-2.428.5c.153,2.652-.928,4.452-3.526,5.266v.931c1.349,0,2.677.006,4-.009a.6.6,0,0,0,.36-.208,7,7,0,0,1,7.771-2.027,1.323,1.323,0,0,0,.262.024v-8.5a10.662,10.662,0,1,1,21.323.15c0,3.459.007,6.92-.008,10.379a.649.649,0,0,0,.444.691,5.13,5.13,0,0,1,3.108,4.847c.028,5.828.01,11.657.009,17.484,0,.868-.293,1.16-1.165,1.16H1.127C.3,46.2,0,45.893,0,45.056V27.515a5.319,5.319,0,0,1,5.341-5.308h4.718C10.244,22.21,10.424,22.209,10.632,22.209Zm42.656,22.18c0-5.723.021-11.381-.013-17.04a3.33,3.33,0,0,0-2.829-3.242,23.154,23.154,0,0,0-3.1-.111c-1.011-.014-2.022,0-3.023,0a3.592,3.592,0,0,1-6.929.021H34.18a7.243,7.243,0,0,1-2.139,8.2,6.354,6.354,0,0,1,4.392,6.54c-.008.4,0,.8,0,1.187H47.982V32.913H49.77V44.389ZM5.352,44.4V32.912H7.141v7.015H18.7c-.38-3.624.815-6.346,4.357-7.72A7.256,7.256,0,0,1,20.9,23.992c-.95,0-1.837.016-2.723-.007a.589.589,0,0,0-.684.444,3.529,3.529,0,0,1-6.577-.043.52.52,0,0,0-.6-.4c-1.591.013-3.182,0-4.774.007a3.559,3.559,0,0,0-3.757,3.76v16.1c0,.177.017.354.027.545ZM43.766,8H46.9c.757,0,1.068.319,1.068,1.085,0,2.627.007,5.254-.01,7.882a4.209,4.209,0,0,1-.189,1.2,4.422,4.422,0,0,1-3.309,3.1v.916h5.254c.008-.142.018-.251.018-.36,0-3.478.009-6.956-.011-10.436a8.729,8.729,0,0,0-.212-1.7A8.864,8.864,0,0,0,31.987,11.3c-.044,3.144-.011,6.29-.008,9.436a.678.678,0,0,0,.08.415c.577.522,1.007,1.23,2.016,1.082a19.251,19.251,0,0,1,2.715-.026c.16,0,.32-.019.482-.029v-.92c-.2-.06-.374-.111-.547-.169a4.425,4.425,0,0,1-2.977-4.027c-.019-2.682-.009-5.365,0-8.048,0-.686.333-1.01,1.028-1.015,1.072-.008,2.146.007,3.219-.008a8.155,8.155,0,0,0,5.468-2.1c.105-.093.222-.177.241-.192l1.332,1.186ZM8.894,8.912v7.816a2.664,2.664,0,0,0,2.824,2.815q2.47.009,4.94,0a2.675,2.675,0,0,0,2.874-2.878q.007-3.609,0-7.216V8.912ZM34.637,44.391c0-2.054.006-4.049,0-6.043a4.911,4.911,0,0,0-.111-1.1,4.315,4.315,0,0,0-2.485-3.065c-.324,3.021-1.742,4.706-4.08,4.9a4.36,4.36,0,0,1-2.936-.777,4.581,4.581,0,0,1-1.942-4.16,4.441,4.441,0,0,0-2.628,4.034c-.04,1.958-.009,3.919-.008,5.878,0,.1.02.21.032.333ZM46.183,9.785c-.605,0-1.122-.016-1.638,0a4.728,4.728,0,0,1-2.724-.572.712.712,0,0,0-.51.014,10.577,10.577,0,0,1-3.595.555c-.714-.017-1.429,0-2.173,0,0,2.5-.048,4.918.019,7.336a2.6,2.6,0,0,0,2.694,2.42q2.608.02,5.218,0a2.656,2.656,0,0,0,2.707-2.708c.013-1.017,0-2.035,0-3.052ZM19.447,7.11c-.036-.21-.054-.37-.091-.524A6.161,6.161,0,0,0,13.326,1.8c-2.515-.031-5.03-.009-7.549-.007-.14,0-.28.029-.444.046V4.318A2.673,2.673,0,0,0,8.126,7.109h11.32Zm2.791,19.549a5.291,5.291,0,1,0,10.581,0c-1.1,0-2.2.031-3.306-.019a1.86,1.86,0,0,1-.97-.4,10.187,10.187,0,0,1-1.039-1.07c-.28.333-.5.576-.706.836a1.712,1.712,0,0,1-1.546.666C24.259,26.624,23.264,26.659,22.238,26.659ZM7.131,44.371h11.49V41.8H7.131Zm29.308,0H47.928V41.8H36.439Zm-3.957-19.5a5.213,5.213,0,0,0-9.873-.009,10.437,10.437,0,0,0,2.7-.06c.577-.159,1-.88,1.492-1.348a.926.926,0,0,1,1.493.016c.4.384.777.794,1.183,1.166A.888.888,0,0,0,30,24.86C30.808,24.886,31.621,24.873,32.482,24.873Zm-7.571,8.918a2.9,2.9,0,0,0,1.25,3.108,2.473,2.473,0,0,0,2.862-.073,2.916,2.916,0,0,0,1.141-3.039ZM15.975,21.366H12.458c0,.666-.04,1.288.009,1.908a1.757,1.757,0,0,0,3.5.041C16.024,22.679,15.975,22.033,15.975,21.366Zm23.119-.009c0,.656-.031,1.264.007,1.87a1.76,1.76,0,0,0,3.5.077c.06-.635.012-1.28.012-1.946ZM7.081,12.466c-.6.008-1.25-.213-1.59.444a1.074,1.074,0,0,0,.044.909c.37.583.987.381,1.545.364Zm14.282,0V14.2c.589-.007,1.221.2,1.563-.423a1.089,1.089,0,0,0-.017-.909c-.352-.605-.98-.393-1.546-.4Z" transform="translate(0 0)" fill="#d6a461"/></g></svg>