<svg xmlns="http://www.w3.org/2000/svg" width="46.795" height="46.795" viewBox="0 0 46.795 46.795"><g transform="translate(-1 -1)"><path d="M10.286,19H5.755A.755.755,0,0,0,5,19.755v4.531a.755.755,0,0,0,.755.755h4.531a.755.755,0,0,0,.755-.755V19.755A.755.755,0,0,0,10.286,19Zm-.755,4.531H6.51V20.51H9.531Z" transform="translate(-0.979 -4.407)" fill="#d6a461"/><path d="M20.286,19H15.755a.755.755,0,0,0-.755.755v4.531a.755.755,0,0,0,.755.755h4.531a.755.755,0,0,0,.755-.755V19.755A.755.755,0,0,0,20.286,19Zm-.755,4.531H16.51V20.51h3.021Z" transform="translate(-3.428 -4.407)" fill="#d6a461"/><path d="M25.755,25.041h4.531a.755.755,0,0,0,.755-.755V19.755A.755.755,0,0,0,30.286,19H25.755a.755.755,0,0,0-.755.755v4.531A.755.755,0,0,0,25.755,25.041Zm.755-4.531h3.021v3.021H26.51Z" transform="translate(-5.876 -4.407)" fill="#d6a461"/><path d="M35.755,25.041h4.531a.755.755,0,0,0,.755-.755V19.755A.755.755,0,0,0,40.286,19H35.755a.755.755,0,0,0-.755.755v4.531A.755.755,0,0,0,35.755,25.041Zm.755-4.531h3.021v3.021H36.51Z" transform="translate(-8.325 -4.407)" fill="#d6a461"/><path d="M45.755,25.041h4.531a.755.755,0,0,0,.755-.755V19.755A.755.755,0,0,0,50.286,19H45.755a.755.755,0,0,0-.755.755v4.531A.755.755,0,0,0,45.755,25.041Zm.755-4.531h3.021v3.021H46.51Z" transform="translate(-10.773 -4.407)" fill="#d6a461"/><path d="M10.286,29H5.755A.755.755,0,0,0,5,29.755v4.531a.755.755,0,0,0,.755.755h4.531a.755.755,0,0,0,.755-.755V29.755A.755.755,0,0,0,10.286,29Zm-.755,4.531H6.51V30.51H9.531Z" transform="translate(-0.979 -6.856)" fill="#d6a461"/><path d="M20.286,29H15.755a.755.755,0,0,0-.755.755v4.531a.755.755,0,0,0,.755.755h4.531a.755.755,0,0,0,.755-.755V29.755A.755.755,0,0,0,20.286,29Zm-.755,4.531H16.51V30.51h3.021Z" transform="translate(-3.428 -6.856)" fill="#d6a461"/><path d="M10.286,39H5.755A.755.755,0,0,0,5,39.755v4.531a.755.755,0,0,0,.755.755h4.531a.755.755,0,0,0,.755-.755V39.755A.755.755,0,0,0,10.286,39Zm-.755,4.531H6.51V40.51H9.531Z" transform="translate(-0.979 -9.304)" fill="#d6a461"/><path d="M20.286,39H15.755a.755.755,0,0,0-.755.755v4.531a.755.755,0,0,0,.755.755h4.531a.755.755,0,0,0,.755-.755V39.755A.755.755,0,0,0,20.286,39Zm-.755,4.531H16.51V40.51h3.021Z" transform="translate(-3.428 -9.304)" fill="#d6a461"/><path d="M51.626,47.7l-6.451-6.451.631-.631.221.221a.755.755,0,0,0,1.068,0l2.265-2.265a.754.754,0,0,0,0-1.068l-5.286-5.286a.754.754,0,0,0-1.068,0l-2.265,2.265a.754.754,0,0,0,0,1.068l.221.221-4.218,4.218-.221-.221a.754.754,0,0,0-1.068,0l-2.265,2.265a.754.754,0,0,0,0,1.068l5.286,5.286a.755.755,0,0,0,1.068,0l2.265-2.265a.754.754,0,0,0,0-1.068l-.221-.221.631-.631,6.451,6.451a.755.755,0,0,0,1.068,0l1.888-1.888A.756.756,0,0,0,51.626,47.7ZM43.54,33.823l4.218,4.218-1.2,1.2-4.218-4.218ZM39.009,46.79l-4.218-4.218,1.2-1.2,4.218,4.218Zm-1.2-5.729,4.218-4.218,2.708,2.708L40.519,43.77ZM49.2,49.056l-5.917-5.917.82-.82,5.917,5.917Z" transform="translate(-7.827 -7.59)" fill="#d6a461"/><path d="M43.289,25.227V4.776a.755.755,0,0,0-.755-.755H39.513V3.265a2.265,2.265,0,1,0-4.531,0v.755H31.961V3.265a2.265,2.265,0,1,0-4.531,0v.755H24.41V3.265a2.265,2.265,0,1,0-4.531,0v.755H16.858V3.265a2.265,2.265,0,0,0-4.531,0v.755H9.307V3.265a2.265,2.265,0,1,0-4.531,0v.755H1.755A.755.755,0,0,0,1,4.776V39.513a.755.755,0,0,0,.755.755H23.3A12.816,12.816,0,1,0,43.289,25.227Zm-6.8-21.961a.755.755,0,0,1,1.51,0V6.286a.755.755,0,0,1-1.51,0Zm-7.552,0a.755.755,0,1,1,1.51,0V6.286a.755.755,0,1,1-1.51,0Zm-7.552,0a.755.755,0,1,1,1.51,0V6.286a.755.755,0,1,1-1.51,0Zm-7.552,0a.755.755,0,0,1,1.51,0V6.286a.755.755,0,0,1-1.51,0Zm-7.552,0a.755.755,0,1,1,1.51,0V6.286a.755.755,0,0,1-1.51,0ZM4.776,5.531v.755a2.265,2.265,0,1,0,4.531,0V5.531h3.021v.755a2.265,2.265,0,0,0,4.531,0V5.531h3.021v.755a2.265,2.265,0,1,0,4.531,0V5.531H27.43v.755a2.265,2.265,0,1,0,4.531,0V5.531h3.021v.755a2.265,2.265,0,1,0,4.531,0V5.531h2.265v6.041H2.51V5.531ZM2.51,38.758V13.082H41.778V24.121a12.689,12.689,0,0,0-9.269-1.734.748.748,0,0,0-.548-.242H27.43a.755.755,0,0,0-.755.755V25.2a13,13,0,0,0-1.51,1.514V22.9a.755.755,0,0,0-.755-.755H19.879a.755.755,0,0,0-.755.755V27.43a.755.755,0,0,0,.755.755h4.227a12.723,12.723,0,0,0-.813,1.51H19.879a.755.755,0,0,0-.755.755v4.531a.755.755,0,0,0,.755.755h2.3a12.752,12.752,0,0,0,.533,3.021Zm26.434-15.1c-.261.139-.51.295-.759.451v-.451Zm-5.29,0v3.021H20.634V23.655ZM22.182,34.227H20.634V31.206H22.71a12.786,12.786,0,0,0-.528,3.021ZM34.97,46.285A11.315,11.315,0,1,1,46.285,34.97,11.328,11.328,0,0,1,34.97,46.285Z" fill="#d6a461"/></g></svg>