<svg xmlns="http://www.w3.org/2000/svg" width="45.679" height="45.679" viewBox="0 0 45.679 45.679"><g transform="translate(-1 -1)"><path d="M16.947,18.682h6.326l3.468,3.468a.736.736,0,0,0,1.042,0l3.468-3.468h6.326a2.95,2.95,0,0,0,2.947-2.947V3.947A2.95,2.95,0,0,0,37.576,1H16.947A2.95,2.95,0,0,0,14,3.947V15.735A2.95,2.95,0,0,0,16.947,18.682ZM15.474,3.947a1.475,1.475,0,0,1,1.474-1.474H37.576A1.475,1.475,0,0,1,39.05,3.947V15.735a1.475,1.475,0,0,1-1.474,1.474H30.945a.734.734,0,0,0-.521.216l-3.163,3.163L24.1,17.425a.734.734,0,0,0-.521-.216H16.947a1.475,1.475,0,0,1-1.474-1.474Z" transform="translate(-3.422)" fill="#d6a461"/><path d="M25.379,16.051a2.515,2.515,0,0,0,3.557,0l7.583-7.583a.736.736,0,0,0,0-1.042l-2.21-2.21a.736.736,0,0,0-1.042,0l-6.11,6.11L25.468,9.636a.736.736,0,0,0-1.042,0l-2.21,2.21a.736.736,0,0,0,0,1.042ZM24.947,11.2l1.689,1.689a.736.736,0,0,0,1.042,0l6.11-6.11,1.168,1.168-7.063,7.062a1.066,1.066,0,0,1-1.474,0l-2.642-2.641Z" transform="translate(-5.528 -1.053)" fill="#d6a461"/><path d="M45.942,33H38.575a.737.737,0,0,0-.737.737v.737h-28v-.737A.737.737,0,0,0,9.1,33H1.737A.737.737,0,0,0,1,33.737V49.209a.737.737,0,0,0,.737.737H9.1a.737.737,0,0,0,.737-.737v-.737h2.642l5.8,5.8a2.809,2.809,0,0,0,4.7-1.243,2.791,2.791,0,0,0,4.421-1.474,2.791,2.791,0,0,0,4.421-1.474,2.79,2.79,0,0,0,1.714.6,2.823,2.823,0,0,0,2.75-2.21h1.544v.737a.737.737,0,0,0,.737.737h7.368a.737.737,0,0,0,.737-.737V33.737A.737.737,0,0,0,45.942,33ZM8.368,48.472H2.474v-14H8.368Zm25.176.737a1.356,1.356,0,0,1-.953-.395l-6.021-6.02-1.042,1.042,4.548,4.547a1.348,1.348,0,0,1-.953,2.3,1.356,1.356,0,0,1-.953-.395L22.887,45l-1.042,1.042,3.811,3.811a1.348,1.348,0,0,1-.953,2.3,1.356,1.356,0,0,1-.953-.395L19.2,47.214l-1.042,1.042,3.074,3.074a1.347,1.347,0,0,1-.953,2.3,1.356,1.356,0,0,1-.953-.395l-6.021-6.02A.734.734,0,0,0,12.788,47H9.841V35.947H20.587l-3.29,3.29a2.82,2.82,0,1,0,3.989,3.988l3.595-3.594h2.337L34.5,46.909a1.348,1.348,0,0,1-.953,2.3ZM36.216,47a2.808,2.808,0,0,0-.679-1.132l-7.494-7.494a.734.734,0,0,0-.521-.216H24.576a.734.734,0,0,0-.521.216l-3.811,3.811a1.347,1.347,0,0,1-2.3-.953,1.339,1.339,0,0,1,.394-.953l4.331-4.331H37.838V47Zm8.989,1.474H39.311v-14h5.894Z" transform="translate(0 -8.424)" fill="#d6a461"/></g></svg>