<svg xmlns="http://www.w3.org/2000/svg" xmlns:xlink="http://www.w3.org/1999/xlink" viewBox="0 0 278.06 90.31"><defs><style>.cls-1{fill:url(#Gradiente_sem_nome_4);}.cls-2{fill:#d6a461;}</style><linearGradient id="Gradiente_sem_nome_4" x1="76.37" y1="30.4" x2="278.06" y2="30.4" gradientUnits="userSpaceOnUse"><stop offset="0" stop-color="#d6a461"/><stop offset="1" stop-color="#ac7644"/></linearGradient></defs><g id="Camada_2" data-name="Camada 2"><g id="Derivações"><g id="Logo"><path id="Buenos_Rios_Consentino" data-name="Buenos Rios &amp; Consentino" class="cls-1" d="M91.3,12.57A11.85,11.85,0,0,1,96,14.45a5,5,0,0,1,1.93,4.06,5.39,5.39,0,0,1-2.12,4.35q-2.59,2.09-7.55,2.08H76.37V24.3a5.33,5.33,0,0,0,2.19-.3,1.8,1.8,0,0,0,.81-.78,7.26,7.26,0,0,0,.23-2.37V5.71a7.34,7.34,0,0,0-.23-2.38,1.75,1.75,0,0,0-.82-.79,5.61,5.61,0,0,0-2.18-.29V1.61H87.55a15.81,15.81,0,0,1,5.68.72,5.83,5.83,0,0,1,2.63,2.13,5.3,5.3,0,0,1,1,3,4.31,4.31,0,0,1-1.22,3A8.69,8.69,0,0,1,91.3,12.57ZM85,13.45v7.48l0,.86a1.66,1.66,0,0,0,1.88,1.88,5.43,5.43,0,0,0,2.53-.61,4.17,4.17,0,0,0,1.78-1.77,5.36,5.36,0,0,0,.62-2.59,5.79,5.79,0,0,0-.75-2.94A4.09,4.09,0,0,0,89,14,11.15,11.15,0,0,0,85,13.45Zm0-1.34a9,9,0,0,0,3.6-.55A4.11,4.11,0,0,0,90.42,10,4.79,4.79,0,0,0,91,7.46a4.72,4.72,0,0,0-.61-2.53,3.87,3.87,0,0,0-1.75-1.51A9.33,9.33,0,0,0,85,2.92Zm31-3.25V21.45a4.62,4.62,0,0,0,.35,2.3,2,2,0,0,0,1.39.57v.62h-6.55V22.79a8.09,8.09,0,0,1-2.31,2,5.3,5.3,0,0,1-2.58.63,3.86,3.86,0,0,1-2.42-.83,4.12,4.12,0,0,1-1.41-1.95,14,14,0,0,1-.37-3.91V12.35a4.67,4.67,0,0,0-.33-2.27,2,2,0,0,0-1.4-.59V8.86h6.55v11a9.66,9.66,0,0,0,.16,2.22,1.57,1.57,0,0,0,.52.76,1.37,1.37,0,0,0,.82.25,2.09,2.09,0,0,0,1.12-.32A7.21,7.21,0,0,0,111.21,21v-8.6a4.51,4.51,0,0,0-.34-2.27,2,2,0,0,0-1.4-.59V8.86Zm17.86,7.46h-8.82a8.3,8.3,0,0,0,1.7,5.06,3.62,3.62,0,0,0,2.86,1.43,3.19,3.19,0,0,0,1.87-.58,7,7,0,0,0,1.81-2.07l.58.38A9.71,9.71,0,0,1,131,24.31a6.19,6.19,0,0,1-3.66,1.11,6.09,6.09,0,0,1-5.42-2.75,9.75,9.75,0,0,1-1.48-5.5,9.14,9.14,0,0,1,2.18-6.41,6.71,6.71,0,0,1,5.1-2.39,5.52,5.52,0,0,1,4.24,2A9.14,9.14,0,0,1,133.88,16.32Zm-4.23-1.15a15.88,15.88,0,0,0-.3-3.8,3.1,3.1,0,0,0-.94-1.57,1.46,1.46,0,0,0-1-.31,1.7,1.7,0,0,0-1.46.88,7.5,7.5,0,0,0-1,4.2v.6Zm13-6.31v2.08A9,9,0,0,1,145,9a5.06,5.06,0,0,1,2.44-.62,3.89,3.89,0,0,1,2.6.87,4.17,4.17,0,0,1,1.38,2.16,17,17,0,0,1,.27,3.77v6.26a4.73,4.73,0,0,0,.34,2.32,2,2,0,0,0,1.4.57v.62h-8.14v-.62a1.68,1.68,0,0,0,1.31-.76,5,5,0,0,0,.27-2.13V14.28a12.18,12.18,0,0,0-.15-2.5,1.51,1.51,0,0,0-.53-.8,1.27,1.27,0,0,0-.81-.28c-1,0-1.91.7-2.75,2.11v8.62a4.86,4.86,0,0,0,.33,2.29,1.71,1.71,0,0,0,1.25.6v.62h-8.14v-.62a2,2,0,0,0,1.45-.65,4.92,4.92,0,0,0,.29-2.24V12.35a4.51,4.51,0,0,0-.34-2.27,2,2,0,0,0-1.4-.59V8.86Zm20.78-.49a7.52,7.52,0,0,1,3.91,1.09,7,7,0,0,1,2.74,3.08,10.2,10.2,0,0,1,.94,4.37,9.25,9.25,0,0,1-1.74,5.73,6.87,6.87,0,0,1-5.8,2.78,6.66,6.66,0,0,1-5.59-2.54,9.4,9.4,0,0,1-2-5.9,9.54,9.54,0,0,1,2-6A6.59,6.59,0,0,1,163.43,8.37Zm.07,1.23a2,2,0,0,0-1.51.66,4.67,4.67,0,0,0-.82,2.61C161,14.18,161,16,161,18.3a23.22,23.22,0,0,0,.24,3.44A3.34,3.34,0,0,0,162,23.6a1.93,1.93,0,0,0,1.41.64,2,2,0,0,0,1.29-.43,2.9,2.9,0,0,0,.9-1.64,40.94,40.94,0,0,0,.34-6.6,16.22,16.22,0,0,0-.33-4,3.09,3.09,0,0,0-1-1.59A1.82,1.82,0,0,0,163.5,9.6Zm23.55,4.71v6.54a7.38,7.38,0,0,0,.23,2.38,1.69,1.69,0,0,0,.82.78,5.42,5.42,0,0,0,2.18.29v.64H178.34V24.3a5.42,5.42,0,0,0,2.2-.3,1.8,1.8,0,0,0,.81-.78,7.26,7.26,0,0,0,.23-2.37V5.71a7.34,7.34,0,0,0-.23-2.38,1.75,1.75,0,0,0-.82-.79,5.63,5.63,0,0,0-2.19-.29V1.61h10.84a23.68,23.68,0,0,1,6.2.59,6.22,6.22,0,0,1,3.19,2.16,5.77,5.77,0,0,1,1.24,3.69A5.51,5.51,0,0,1,198,12.31a7.58,7.58,0,0,1-3.32,1.6l5.6,7.9a12.13,12.13,0,0,0,1.57,1.91,2.83,2.83,0,0,0,1.63.58v.64H196.1l-7.52-10.63Zm0-11.44V13.09h1a11,11,0,0,0,3.58-.44,3.54,3.54,0,0,0,1.86-1.58,5.76,5.76,0,0,0,.68-3,5.45,5.45,0,0,0-1.24-3.94,5.45,5.45,0,0,0-4-1.27Zm23.73,6V21.6a3.9,3.9,0,0,0,.39,2.18,2.12,2.12,0,0,0,1.55.54v.62H204v-.62a2.12,2.12,0,0,0,1.59-.62,3.93,3.93,0,0,0,.34-2.1V12.21a3.81,3.81,0,0,0-.4-2.18A2.15,2.15,0,0,0,204,9.49V8.86Zm-2.41-7.8a2.55,2.55,0,0,1,1.89.79A2.56,2.56,0,0,1,211,3.73a2.57,2.57,0,0,1-.78,1.88,2.65,2.65,0,0,1-4.53-1.88,2.6,2.6,0,0,1,.77-1.88A2.52,2.52,0,0,1,208.37,1.06Zm13.68,7.31A7.45,7.45,0,0,1,226,9.46a6.93,6.93,0,0,1,2.75,3.08,10.19,10.19,0,0,1,.93,4.37,9.25,9.25,0,0,1-1.73,5.73,6.87,6.87,0,0,1-5.8,2.78,6.66,6.66,0,0,1-5.59-2.54,9.4,9.4,0,0,1-2-5.9,9.54,9.54,0,0,1,2-6A6.59,6.59,0,0,1,222.05,8.37Zm.07,1.23a2,2,0,0,0-1.51.66,4.59,4.59,0,0,0-.82,2.61c-.14,1.31-.2,3.11-.2,5.43a23.22,23.22,0,0,0,.24,3.44,3.28,3.28,0,0,0,.81,1.86,1.93,1.93,0,0,0,1.41.64,2,2,0,0,0,1.29-.43,2.89,2.89,0,0,0,.89-1.64,39.38,39.38,0,0,0,.35-6.6,16.22,16.22,0,0,0-.33-4,3.09,3.09,0,0,0-1-1.59A1.82,1.82,0,0,0,222.12,9.6Zm20.3-1.19.26,5.49h-.59a8.67,8.67,0,0,0-2.17-3.34,3.59,3.59,0,0,0-2.25-.89,1.65,1.65,0,0,0-1.2.47,1.47,1.47,0,0,0-.5,1.09,1.43,1.43,0,0,0,.34.9,16.89,16.89,0,0,0,3.08,2.41,12.51,12.51,0,0,1,3.33,2.91,4.73,4.73,0,0,1,.8,2.67,5.63,5.63,0,0,1-.67,2.64,4.67,4.67,0,0,1-1.89,2,5.42,5.42,0,0,1-2.7.69,9.37,9.37,0,0,1-3.08-.72,2.47,2.47,0,0,0-.71-.19c-.38,0-.69.29-.94.86H233l-.28-5.78h.59A7.48,7.48,0,0,0,235.39,23,4.1,4.1,0,0,0,238,24.13a1.89,1.89,0,0,0,1.35-.5,1.65,1.65,0,0,0,.52-1.23,2.12,2.12,0,0,0-.51-1.43A14.26,14.26,0,0,0,237,19.14a17.83,17.83,0,0,1-3.4-2.78,4.85,4.85,0,0,1-1.14-3.12,5.06,5.06,0,0,1,1.28-3.36,4.62,4.62,0,0,1,3.71-1.51A5.49,5.49,0,0,1,240,9a1.71,1.71,0,0,0,.75.26.82.82,0,0,0,.5-.13,3.37,3.37,0,0,0,.61-.73Zm27.88,3.07h7.15v.67a3.88,3.88,0,0,0-1.89.71,9.63,9.63,0,0,0-1.79,2.52,30.74,30.74,0,0,1-3.09,4.43,17.94,17.94,0,0,0,2.85,2.2,3.19,3.19,0,0,0,1.51.43,2.87,2.87,0,0,0,2.31-1.67l.71.38a11.09,11.09,0,0,1-3,3.94,4.66,4.66,0,0,1-2.78.87,6,6,0,0,1-2.56-.57,13.48,13.48,0,0,1-2.95-2.16,17.57,17.57,0,0,1-4,2.09,12.1,12.1,0,0,1-3.94.64,7.36,7.36,0,0,1-5.19-1.77A5.47,5.47,0,0,1,251.65,20a6.24,6.24,0,0,1,1.84-4.49,15,15,0,0,1,5.35-3.3,13.29,13.29,0,0,1-.67-2.19A10,10,0,0,1,257.94,8a6.06,6.06,0,0,1,1.94-4.59,6.91,6.91,0,0,1,4.95-1.83,5.72,5.72,0,0,1,3.84,1.21,3.63,3.63,0,0,1,1.42,2.83,4.42,4.42,0,0,1-1.45,3.33A13.54,13.54,0,0,1,264,11.48a39.6,39.6,0,0,0,5.7,7.38c1.68-1.89,2.53-3.52,2.53-4.87a1.71,1.71,0,0,0-.5-1.23,2.32,2.32,0,0,0-1.46-.61Zm-11,1.86a5.27,5.27,0,0,0-1.94,1.24,3.24,3.24,0,0,0-.81,2.15,6.25,6.25,0,0,0,.94,3.21,7.27,7.27,0,0,0,2.26,2.48,4.79,4.79,0,0,0,2.65.88,4.59,4.59,0,0,0,1.47-.29,10.08,10.08,0,0,0,1.78-.85A33.66,33.66,0,0,1,259.32,13.34Zm4.13-2.89A5.84,5.84,0,0,0,265.88,9a2.86,2.86,0,0,0,.61-1.85,5.16,5.16,0,0,0-1-3.25A2,2,0,0,0,263.83,3a1.81,1.81,0,0,0-1.39.64,2.48,2.48,0,0,0-.57,1.72,6.79,6.79,0,0,0,.27,1.81A29.8,29.8,0,0,0,263.45,10.45ZM99.14,35.33v8.09h-.67a8.55,8.55,0,0,0-2.82-4.85A7.15,7.15,0,0,0,91,36.88a6.93,6.93,0,0,0-4,1.26,7.3,7.3,0,0,0-2.66,3.28,15,15,0,0,0-1.09,5.78,19.31,19.31,0,0,0,.8,5.71,7.52,7.52,0,0,0,2.47,3.88,6.89,6.89,0,0,0,4.37,1.32,8.6,8.6,0,0,0,4-1,14.22,14.22,0,0,0,3.86-3.32v2a12.93,12.93,0,0,1-4.09,3,12.44,12.44,0,0,1-5,.92,14.2,14.2,0,0,1-6.63-1.5,10.62,10.62,0,0,1-4.48-4.3A12.11,12.11,0,0,1,77,48a12.34,12.34,0,0,1,1.75-6.33A12.2,12.2,0,0,1,83.48,37a12.69,12.69,0,0,1,6.31-1.66A14.3,14.3,0,0,1,95,36.4,8.28,8.28,0,0,0,97,37a1.35,1.35,0,0,0,1-.4,2.2,2.2,0,0,0,.52-1.29ZM110,42.63a7.51,7.51,0,0,1,3.91,1.08,7,7,0,0,1,2.74,3.08,10.23,10.23,0,0,1,.94,4.37,9.25,9.25,0,0,1-1.74,5.73,6.85,6.85,0,0,1-5.8,2.79,6.64,6.64,0,0,1-5.59-2.55,9.38,9.38,0,0,1-2-5.9,9.54,9.54,0,0,1,2-6A6.58,6.58,0,0,1,110,42.63Zm.07,1.22a2,2,0,0,0-1.51.66,4.68,4.68,0,0,0-.82,2.62c-.13,1.3-.2,3.11-.2,5.42A23.12,23.12,0,0,0,107.8,56a3.34,3.34,0,0,0,.81,1.86,1.89,1.89,0,0,0,1.41.64,1.92,1.92,0,0,0,1.29-.43,2.9,2.9,0,0,0,.9-1.64,40.94,40.94,0,0,0,.34-6.6,16.22,16.22,0,0,0-.33-4,3.09,3.09,0,0,0-1-1.59A1.82,1.82,0,0,0,110.09,43.85Zm16.71-.74v2.08a9.44,9.44,0,0,1,2.37-1.95,5,5,0,0,1,2.44-.61,3.89,3.89,0,0,1,2.6.87,4.17,4.17,0,0,1,1.38,2.16,16.85,16.85,0,0,1,.27,3.76v6.26A4.73,4.73,0,0,0,136.2,58a2,2,0,0,0,1.4.57v.62h-8.14v-.62a1.7,1.7,0,0,0,1.31-.75,5,5,0,0,0,.28-2.14V48.53a11.9,11.9,0,0,0-.16-2.5,1.56,1.56,0,0,0-.52-.8,1.31,1.31,0,0,0-.82-.28c-1,0-1.9.71-2.75,2.12v8.61a4.86,4.86,0,0,0,.33,2.29,1.73,1.73,0,0,0,1.25.6v.62h-8.14v-.62a2,2,0,0,0,1.45-.65,4.92,4.92,0,0,0,.29-2.24V46.6a4.54,4.54,0,0,0-.34-2.27,2,2,0,0,0-1.4-.58v-.64Zm23.36-.45.26,5.49h-.58a8.67,8.67,0,0,0-2.18-3.34,3.64,3.64,0,0,0-2.25-.89,1.69,1.69,0,0,0-1.2.47,1.48,1.48,0,0,0-.5,1.09,1.44,1.44,0,0,0,.35.9,16.16,16.16,0,0,0,3.08,2.41,13,13,0,0,1,3.32,2.91,4.67,4.67,0,0,1,.8,2.68,5.62,5.62,0,0,1-.67,2.63,4.69,4.69,0,0,1-1.89,2,5.37,5.37,0,0,1-2.7.69,9.43,9.43,0,0,1-3.08-.73,2.84,2.84,0,0,0-.7-.19c-.38,0-.7.29-.95.86h-.57l-.27-5.78H141a7.52,7.52,0,0,0,2.13,3.41,4.06,4.06,0,0,0,2.55,1.14,1.86,1.86,0,0,0,1.35-.51,1.66,1.66,0,0,0,.53-1.23,2.15,2.15,0,0,0-.52-1.43,13,13,0,0,0-2.31-1.82,18.16,18.16,0,0,1-3.4-2.79,4.84,4.84,0,0,1-1.14-3.11,5.11,5.11,0,0,1,1.28-3.37,4.62,4.62,0,0,1,3.71-1.5,5.45,5.45,0,0,1,2.53.63,1.59,1.59,0,0,0,.76.26.87.87,0,0,0,.5-.13,3.47,3.47,0,0,0,.6-.73Zm17.35,7.92h-8.83a8.3,8.3,0,0,0,1.71,5.05,3.6,3.6,0,0,0,2.85,1.43,3.24,3.24,0,0,0,1.88-.58,7.16,7.16,0,0,0,1.8-2.07l.59.38a9.77,9.77,0,0,1-2.89,3.78A6.24,6.24,0,0,1,161,59.68a6.11,6.11,0,0,1-5.42-2.76,9.74,9.74,0,0,1-1.47-5.5A9.13,9.13,0,0,1,156.23,45a6.69,6.69,0,0,1,5.1-2.38,5.54,5.54,0,0,1,4.24,2A9.15,9.15,0,0,1,167.51,50.58Zm-4.23-1.16a15.27,15.27,0,0,0-.31-3.8,3.08,3.08,0,0,0-.93-1.56,1.41,1.41,0,0,0-1-.31,1.7,1.7,0,0,0-1.46.87,7.5,7.5,0,0,0-1,4.2v.6Zm13-6.31v2.08a9.44,9.44,0,0,1,2.37-1.95,5,5,0,0,1,2.44-.61,3.89,3.89,0,0,1,2.6.87,4.17,4.17,0,0,1,1.38,2.16,16.85,16.85,0,0,1,.27,3.76v6.26a4.86,4.86,0,0,0,.34,2.32,2,2,0,0,0,1.4.57v.62h-8.14v-.62a1.7,1.7,0,0,0,1.31-.75,4.84,4.84,0,0,0,.28-2.14V48.53a11.21,11.21,0,0,0-.16-2.5,1.56,1.56,0,0,0-.52-.8A1.31,1.31,0,0,0,179,45c-1,0-1.9.71-2.75,2.12v8.61A4.86,4.86,0,0,0,176.6,58a1.73,1.73,0,0,0,1.25.6v.62h-8.14v-.62a2,2,0,0,0,1.45-.65,4.92,4.92,0,0,0,.29-2.24V46.6a4.7,4.7,0,0,0-.33-2.27,2.07,2.07,0,0,0-1.41-.58v-.64Zm19.58-5.88v5.88h3.82v1.7h-3.82v9.93a7.36,7.36,0,0,0,.13,1.8,1.3,1.3,0,0,0,.45.65,1,1,0,0,0,.61.25c.74,0,1.45-.57,2.11-1.7l.52.37q-1.39,3.31-4.53,3.31a4.05,4.05,0,0,1-2.59-.85,3.87,3.87,0,0,1-1.35-1.9A16.78,16.78,0,0,1,191,53.5V44.81h-2.1v-.6A21.52,21.52,0,0,0,192.62,41a19.58,19.58,0,0,0,2.66-3.76Zm11.8,5.88V55.86a3.83,3.83,0,0,0,.4,2.17,2.1,2.1,0,0,0,1.55.54v.62h-8.69v-.62a2.07,2.07,0,0,0,1.58-.61,3.85,3.85,0,0,0,.35-2.1v-9.4a3.75,3.75,0,0,0-.4-2.17,2.06,2.06,0,0,0-1.53-.54v-.64Zm-2.4-7.79a2.66,2.66,0,1,1-1.88,4.54,2.66,2.66,0,0,1,1.88-4.54Zm12.66,7.79v2.08a9.64,9.64,0,0,1,2.38-1.95,5,5,0,0,1,2.44-.61,3.91,3.91,0,0,1,2.6.87,4.21,4.21,0,0,1,1.37,2.16,16.07,16.07,0,0,1,.28,3.76v6.26a4.9,4.9,0,0,0,.33,2.32,2,2,0,0,0,1.4.57v.62h-8.13v-.62a1.72,1.72,0,0,0,1.31-.75,5.06,5.06,0,0,0,.27-2.14V48.53A12.18,12.18,0,0,0,222,46a1.57,1.57,0,0,0-.53-.8,1.31,1.31,0,0,0-.82-.28c-1,0-1.9.71-2.75,2.12v8.61a4.69,4.69,0,0,0,.34,2.29,1.7,1.7,0,0,0,1.24.6v.62h-8.13v-.62a1.94,1.94,0,0,0,1.44-.65,4.77,4.77,0,0,0,.29-2.24V46.6a4.7,4.7,0,0,0-.33-2.27,2,2,0,0,0-1.4-.58v-.64Zm20.79-.48a7.45,7.45,0,0,1,3.9,1.08,6.93,6.93,0,0,1,2.75,3.08,10.23,10.23,0,0,1,.93,4.37,9.31,9.31,0,0,1-1.73,5.73,6.86,6.86,0,0,1-5.8,2.79,6.62,6.62,0,0,1-5.59-2.55,9.38,9.38,0,0,1-2-5.9,9.48,9.48,0,0,1,2-6A6.58,6.58,0,0,1,238.7,42.63Zm.07,1.22a2,2,0,0,0-1.51.66,4.66,4.66,0,0,0-.83,2.62c-.13,1.3-.19,3.11-.19,5.42a23.12,23.12,0,0,0,.24,3.44,3.21,3.21,0,0,0,.81,1.86,1.89,1.89,0,0,0,1.41.64,2,2,0,0,0,1.29-.43,3,3,0,0,0,.89-1.64,39.38,39.38,0,0,0,.35-6.6,16.22,16.22,0,0,0-.33-4,3.09,3.09,0,0,0-1-1.59A1.82,1.82,0,0,0,238.77,43.85Z"/><g id="Advogados"><path class="cls-2" d="M82.79,72.86h2L89.67,86.2h-2l-1.35-4H81.06l-1.44,4H77.77Zm3,7.87-2-5.89-2.15,5.89Z"/><path class="cls-2" d="M97.86,76.77a4.31,4.31,0,0,1,1,1V72.82h1.58V86.2H98.94V84.85a3.45,3.45,0,0,1-1.35,1.29,3.84,3.84,0,0,1-1.79.4A3.61,3.61,0,0,1,93,85.18a5.37,5.37,0,0,1-1.19-3.64,6.29,6.29,0,0,1,1.08-3.68,3.9,3.9,0,0,1,5-1.09Zm-3.67,7.3a2.32,2.32,0,0,0,2.12,1.05,2.25,2.25,0,0,0,1.87-1,4.65,4.65,0,0,0,.73-2.8,4.1,4.1,0,0,0-.76-2.73,2.34,2.34,0,0,0-1.86-.88,2.45,2.45,0,0,0-2,.94,4.34,4.34,0,0,0-.77,2.78A4.79,4.79,0,0,0,94.19,84.07Z"/><path class="cls-2" d="M105,76.47l2.6,7.92,2.72-7.92h1.78l-3.66,9.73h-1.75l-3.58-9.73Z"/><path class="cls-2" d="M122,77.45a4.9,4.9,0,0,1,1.3,3.68A6.35,6.35,0,0,1,122.17,85a4.13,4.13,0,0,1-3.55,1.53,4,4,0,0,1-3.19-1.35,5.41,5.41,0,0,1-1.18-3.65,5.78,5.78,0,0,1,1.25-3.9,4.17,4.17,0,0,1,3.34-1.46A4.41,4.41,0,0,1,122,77.45Zm-1,6.47a6.06,6.06,0,0,0,.61-2.74,4.9,4.9,0,0,0-.44-2.22,2.46,2.46,0,0,0-2.38-1.34,2.36,2.36,0,0,0-2.18,1.14,5.38,5.38,0,0,0-.68,2.76,4.64,4.64,0,0,0,.68,2.59,2.42,2.42,0,0,0,2.17,1A2.24,2.24,0,0,0,121,83.92Z"/><path class="cls-2" d="M132.08,76.87a4.5,4.5,0,0,1,.95.92V76.57h1.5v8.84a6.56,6.56,0,0,1-.54,2.92q-1,2-3.84,2a4.68,4.68,0,0,1-2.64-.7,2.71,2.71,0,0,1-1.2-2.2H128a1.87,1.87,0,0,0,.47,1,3,3,0,0,0,4.21-.78,7.45,7.45,0,0,0,.31-2.78,3.17,3.17,0,0,1-1.18,1.1,3.82,3.82,0,0,1-1.82.37,3.93,3.93,0,0,1-2.77-1.12A5,5,0,0,1,126,81.49a5.67,5.67,0,0,1,1.19-3.82,3.72,3.72,0,0,1,2.89-1.37A3.5,3.5,0,0,1,132.08,76.87Zm.2,1.75a2.38,2.38,0,0,0-1.9-.87A2.35,2.35,0,0,0,128,79.36a6.46,6.46,0,0,0-.33,2.26,4,4,0,0,0,.67,2.5,2.12,2.12,0,0,0,1.79.86,2.52,2.52,0,0,0,2.48-1.59,5.23,5.23,0,0,0,.4-2.09A4,4,0,0,0,132.28,78.62Z"/><path class="cls-2" d="M143.6,80.31a.87.87,0,0,0,.75-.48,1.3,1.3,0,0,0,.11-.62,1.33,1.33,0,0,0-.59-1.21,3.13,3.13,0,0,0-1.7-.38,2.17,2.17,0,0,0-1.82.69,2.24,2.24,0,0,0-.39,1.13h-1.53a2.81,2.81,0,0,1,1.17-2.5,4.8,4.8,0,0,1,2.6-.7,5.33,5.33,0,0,1,2.79.65,2.23,2.23,0,0,1,1.06,2v5.6a.73.73,0,0,0,.11.41c.07.1.21.15.44.15h.24l.29,0v1.2a3.83,3.83,0,0,1-.58.14,3.75,3.75,0,0,1-.54,0,1.34,1.34,0,0,1-1.23-.6,2.27,2.27,0,0,1-.28-.9A4,4,0,0,1,143.06,86a4.32,4.32,0,0,1-2.06.49,3.06,3.06,0,0,1-2.21-.83,2.72,2.72,0,0,1-.86-2,2.68,2.68,0,0,1,.85-2.1,4,4,0,0,1,2.21-.92Zm-3.44,4.42a1.92,1.92,0,0,0,1.23.41,3.83,3.83,0,0,0,1.67-.4,2.26,2.26,0,0,0,1.36-2.17V81.25a2.93,2.93,0,0,1-.77.32,8.44,8.44,0,0,1-.93.18l-1,.13a3.76,3.76,0,0,0-1.33.37,1.44,1.44,0,0,0-.76,1.36A1.34,1.34,0,0,0,140.16,84.73Z"/><path class="cls-2" d="M155.49,76.77a4.53,4.53,0,0,1,1,1V72.82h1.57V86.2h-1.47V84.85a3.45,3.45,0,0,1-1.35,1.29,3.84,3.84,0,0,1-1.79.4,3.63,3.63,0,0,1-2.82-1.36,5.37,5.37,0,0,1-1.19-3.64,6.29,6.29,0,0,1,1.09-3.68,3.55,3.55,0,0,1,3.1-1.56A3.51,3.51,0,0,1,155.49,76.77Zm-3.67,7.3A2.33,2.33,0,0,0,154,85.12a2.23,2.23,0,0,0,1.86-1,4.58,4.58,0,0,0,.73-2.8,4.16,4.16,0,0,0-.75-2.73,2.34,2.34,0,0,0-1.86-.88,2.45,2.45,0,0,0-2,.94,4.34,4.34,0,0,0-.77,2.78A4.88,4.88,0,0,0,151.82,84.07Z"/><path class="cls-2" d="M169,77.45a4.86,4.86,0,0,1,1.3,3.68A6.34,6.34,0,0,1,169.12,85a4.16,4.16,0,0,1-3.55,1.53,4,4,0,0,1-3.19-1.35,5.36,5.36,0,0,1-1.18-3.65,5.78,5.78,0,0,1,1.24-3.9,4.17,4.17,0,0,1,3.34-1.46A4.37,4.37,0,0,1,169,77.45Zm-1,6.47a6.19,6.19,0,0,0,.6-2.74,4.9,4.9,0,0,0-.43-2.22,2.47,2.47,0,0,0-2.38-1.34,2.34,2.34,0,0,0-2.18,1.14,5.28,5.28,0,0,0-.68,2.76,4.56,4.56,0,0,0,.68,2.59,2.39,2.39,0,0,0,2.16,1A2.26,2.26,0,0,0,168,83.92Z"/><path class="cls-2" d="M174.57,83.15A2.34,2.34,0,0,0,175,84.4a2.55,2.55,0,0,0,2.14.79,3.21,3.21,0,0,0,1.6-.39,1.32,1.32,0,0,0,.69-1.23,1.05,1.05,0,0,0-.56-.95,6.37,6.37,0,0,0-1.39-.46l-1.3-.33a6.12,6.12,0,0,1-1.84-.69,2.06,2.06,0,0,1-1-1.83,2.82,2.82,0,0,1,1-2.24,4,4,0,0,1,2.68-.85,3.72,3.72,0,0,1,3.17,1.29,2.83,2.83,0,0,1,.59,1.76h-1.55a1.92,1.92,0,0,0-.39-1,2.47,2.47,0,0,0-1.95-.64,2.37,2.37,0,0,0-1.4.35,1.12,1.12,0,0,0-.48.94,1.17,1.17,0,0,0,.63,1,3.67,3.67,0,0,0,1.07.39l1.08.27a8.51,8.51,0,0,1,2.36.82,2.18,2.18,0,0,1,1,2,3,3,0,0,1-1,2.25,4.2,4.2,0,0,1-3,.94,4.08,4.08,0,0,1-3.08-1,3.73,3.73,0,0,1-1-2.44Z"/></g><g id="BRCADV_-_Horizontal" data-name="BRCADV - Horizontal"><path id="Isologo" class="cls-2" d="M31.66,23.66q1.54-7.14,3.08-14.27c.53-2.46,1-4.93,1.56-7.38.25-1.09.74-2,2.07-2s1.69.88,2,1.86c1.16,4.31,2.26,8.64,3.41,13A2.33,2.33,0,0,1,43,17.24L35.25,25a2,2,0,0,1-2.39.64A2,2,0,0,1,31.66,23.66ZM42.9,45.16q-3.81-3.79-7.59-7.59a2,2,0,0,0-2.6-.64c-1.12.58-1.08,1.56-.89,2.53.46,2.31,1,4.61,1.47,6.91,1,4.68,2,9.37,3,14.05.22,1,.6,1.9,1.77,2.07a1.73,1.73,0,0,0,2.06-1.31c1.28-4.62,2.5-9.25,3.63-13.48A2.51,2.51,0,0,0,42.9,45.16ZM23.2,31.81q-10.74,2.3-21.48,4.62A1.93,1.93,0,0,0,0,38.24c-.07,1.2.71,1.77,1.73,2,4.32,1.17,8.64,2.32,13,3.48a2.23,2.23,0,0,0,2.28-.5c2.77-2.76,5.54-5.53,8.28-8.31a1.66,1.66,0,0,0,.39-2,1.84,1.84,0,0,0-2-1.15A1.94,1.94,0,0,0,23.2,31.81Zm6.34,5c-1-.46-1.73.08-2.39.73-2.54,2.53-5,5.09-7.61,7.6a2.81,2.81,0,0,0-.66,3.11c1.07,3.84,2,7.71,3.06,11.57.33,1.26.56,2.74,2.32,2.6,1.52-.12,1.79-1.42,2-2.66.72-3.42,1.47-6.84,2.2-10.26.77-3.58,1.52-7.16,2.2-10.4A2,2,0,0,0,29.54,36.84Zm1.14-13.71Q28.4,12.51,26.12,1.89a2.06,2.06,0,0,0-2-1.86c-1.33,0-1.78,1-2.07,2-1.11,4.16-2.19,8.34-3.3,12.5a2.37,2.37,0,0,0,.51,2.49c2.7,2.72,5.4,5.43,8.13,8.12a1.77,1.77,0,0,0,2.22.44,1.9,1.9,0,0,0,1.09-2A3.91,3.91,0,0,0,30.68,23.13Zm-5,6.42a1.83,1.83,0,0,0-.57-2.2c-2.64-2.66-5.3-5.3-7.95-8a2.46,2.46,0,0,0-2.69-.5C10.36,20,6.25,21,2.16,22.08,1,22.38-.09,22.83,0,24.31.1,25.63,1.14,26,2.22,26.21l9.3,2L23,30.67C24.46,30.84,25.22,30.49,25.65,29.55ZM39.3,30.7Q50,28.42,60.74,26.1a2,2,0,0,0,1.76-2c0-1.09-.77-1.58-1.67-1.83-4.4-1.18-8.8-2.33-13.2-3.49a2,2,0,0,0-2.05.43q-4.24,4.21-8.44,8.48a1.85,1.85,0,0,0,1.67,3.09A2.7,2.7,0,0,0,39.3,30.7Zm-2.53,2.23a2.16,2.16,0,0,0,.75,2.4c2.54,2.53,5.09,5,7.6,7.59a2.77,2.77,0,0,0,3.09.69c3.91-1.11,7.85-2.08,11.78-3.1,1.19-.32,2.56-.56,2.49-2.17s-1.29-1.88-2.56-2.14c-3.5-.73-7-1.51-10.48-2.26L39.23,31.81C37.78,31.7,37.11,32.05,36.77,32.93ZM51.43,45.75a5.48,5.48,0,1,0-.44,11,5.41,5.41,0,0,0,5.71-5.35A5.57,5.57,0,0,0,51.43,45.75ZM51.29,5.81a5.56,5.56,0,0,0-5.63,5.5,5.64,5.64,0,0,0,5.72,5.45,5.58,5.58,0,0,0,5.31-5.55A5.38,5.38,0,0,0,51.29,5.81ZM5.81,11.26a5.41,5.41,0,1,0,10.81-.12,5.41,5.41,0,0,0-10.81.12Zm10.81,40a5.4,5.4,0,1,0-5.33,5.43A5.33,5.33,0,0,0,16.62,51.24Z"/></g></g></g></g></svg>